<svg width="221" height="51" viewBox="0 0 221 51" fill="none" xmlns="http://www.w3.org/2000/svg">
<path d="M29.9304 26.044C30.2424 26.044 30.4824 26.2 30.6504 26.512C30.8424 26.8 30.9384 27.172 30.9384 27.628C30.9384 28.18 30.8544 28.612 30.6864 28.924C30.5184 29.236 30.2544 29.512 29.8944 29.752C28.4784 30.688 26.2224 32.224 23.1264 34.36C22.1904 39.328 20.9784 43.24 19.4904 46.096C18.0024 48.952 16.1184 50.38 13.8384 50.38C12.6144 50.38 11.6184 49.996 10.8504 49.228C10.0824 48.484 9.69836 47.5 9.69836 46.276C9.69836 45.148 9.95036 44.008 10.4544 42.856C10.9584 41.704 11.8944 40.372 13.2624 38.86C14.6544 37.348 16.6104 35.62 19.1304 33.676L19.2384 32.992C17.3424 33.784 15.4824 34.18 13.6584 34.18C10.9704 34.18 8.60636 33.664 6.56636 32.632C4.52636 31.576 2.94236 30.088 1.81436 28.168C0.68636 26.248 0.122359 24.016 0.122359 21.472C0.122359 17.92 0.79436 14.788 2.13836 12.076C3.48236 9.34 5.33036 7.228 7.68236 5.74C10.0584 4.228 12.7104 3.472 15.6384 3.472C18.4464 3.472 20.5464 4.132 21.9384 5.452C23.3544 6.748 24.0624 8.476 24.0624 10.636C24.0624 12.052 23.7984 13.192 23.2704 14.056C22.7664 14.896 22.0344 15.316 21.0744 15.316C20.4264 15.316 19.8984 15.16 19.4904 14.848C19.1064 14.536 18.9144 14.104 18.9144 13.552C18.9144 13.312 18.9624 12.904 19.0584 12.328C19.2024 11.656 19.2744 11.128 19.2744 10.744C19.2744 9.736 18.9624 8.956 18.3384 8.404C17.7384 7.852 16.7184 7.576 15.2784 7.576C13.5264 7.576 11.8944 8.08 10.3824 9.088C8.89436 10.096 7.69436 11.608 6.78236 13.624C5.87036 15.616 5.41436 18.016 5.41436 20.824C5.41436 23.704 6.19436 25.936 7.75436 27.52C9.33836 29.08 11.6184 29.86 14.5944 29.86C16.2504 29.86 17.9784 29.488 19.7784 28.744L20.2824 24.352H16.6104C15.9384 24.352 15.4224 24.196 15.0624 23.884C14.7024 23.548 14.5224 23.008 14.5224 22.264C14.5224 21.592 14.7024 21.064 15.0624 20.68C15.4224 20.296 15.9024 20.104 16.5024 20.104H23.2344C23.7624 20.104 24.1944 20.284 24.5304 20.644C24.8904 20.98 25.0344 21.472 24.9624 22.12C24.8904 22.888 24.6504 24.628 24.2424 27.34L23.8464 30.076C25.7664 28.636 27.5184 27.388 29.1024 26.332C29.4144 26.14 29.6904 26.044 29.9304 26.044ZM14.2344 46.888C14.8584 46.888 15.5424 46.18 16.2864 44.764C17.0304 43.348 17.7264 41.068 18.3744 37.924C16.5504 39.484 15.2304 40.888 14.4144 42.136C13.6224 43.408 13.2264 44.524 13.2264 45.484C13.2264 46.42 13.5624 46.888 14.2344 46.888ZM30.8953 34.18C29.9833 34.18 29.3353 33.7 28.9513 32.74C28.5913 31.78 28.4113 30.244 28.4113 28.132C28.4113 25.012 28.8553 22.048 29.7433 19.24C29.9593 18.544 30.3073 18.04 30.7873 17.728C31.2913 17.392 31.9873 17.224 32.8753 17.224C33.3553 17.224 33.6913 17.284 33.8833 17.404C34.0753 17.524 34.1713 17.752 34.1713 18.088C34.1713 18.472 33.9913 19.336 33.6313 20.68C33.3913 21.64 33.1993 22.48 33.0553 23.2C32.9113 23.92 32.7913 24.808 32.6953 25.864C33.4873 23.8 34.3753 22.12 35.3593 20.824C36.3433 19.528 37.3033 18.604 38.2393 18.052C39.1993 17.5 40.0753 17.224 40.8673 17.224C42.4273 17.224 43.2073 18.004 43.2073 19.564C43.2073 19.876 43.0993 20.632 42.8833 21.832C42.6913 22.792 42.5953 23.392 42.5953 23.632C42.5953 24.472 42.8953 24.892 43.4953 24.892C44.1673 24.892 45.0313 24.364 46.0873 23.308C46.3993 22.996 46.7233 22.84 47.0593 22.84C47.3713 22.84 47.6113 22.984 47.7793 23.272C47.9713 23.536 48.0673 23.896 48.0673 24.352C48.0673 25.24 47.8273 25.936 47.3473 26.44C46.6753 27.136 45.8833 27.736 44.9713 28.24C44.0833 28.72 43.1353 28.96 42.1273 28.96C40.8553 28.96 39.8833 28.636 39.2113 27.988C38.5633 27.34 38.2393 26.464 38.2393 25.36C38.2393 25 38.2753 24.64 38.3473 24.28C38.3953 23.8 38.4193 23.476 38.4193 23.308C38.4193 22.924 38.2873 22.732 38.0233 22.732C37.6633 22.732 37.1833 23.14 36.5833 23.956C36.0073 24.748 35.4313 25.804 34.8553 27.124C34.2793 28.444 33.8113 29.836 33.4513 31.3C33.1873 32.428 32.8753 33.196 32.5153 33.604C32.1793 33.988 31.6393 34.18 30.8953 34.18ZM49.4381 14.848C48.4301 14.848 47.6741 14.62 47.1701 14.164C46.6661 13.684 46.4141 13.024 46.4141 12.184C46.4141 11.344 46.7381 10.648 47.3861 10.096C48.0581 9.52 48.8861 9.232 49.8701 9.232C50.7581 9.232 51.4781 9.448 52.0301 9.88C52.5821 10.312 52.8581 10.924 52.8581 11.716C52.8581 12.676 52.5461 13.444 51.9221 14.02C51.2981 14.572 50.4701 14.848 49.4381 14.848ZM49.1501 34.18C47.5901 34.18 46.4501 33.628 45.7301 32.524C45.0341 31.42 44.6861 29.956 44.6861 28.132C44.6861 27.052 44.8181 25.672 45.0821 23.992C45.3701 22.288 45.7301 20.704 46.1621 19.24C46.3781 18.472 46.6661 17.944 47.0261 17.656C47.3861 17.368 47.9621 17.224 48.7541 17.224C49.9781 17.224 50.5901 17.632 50.5901 18.448C50.5901 19.048 50.3621 20.44 49.9061 22.624C49.3301 25.264 49.0421 27.052 49.0421 27.988C49.0421 28.708 49.1381 29.26 49.3301 29.644C49.5221 30.028 49.8461 30.22 50.3021 30.22C50.7341 30.22 51.2741 29.92 51.9221 29.32C52.5701 28.72 53.4341 27.772 54.5141 26.476C54.8021 26.14 55.1261 25.972 55.4861 25.972C55.7981 25.972 56.0381 26.116 56.2061 26.404C56.3981 26.692 56.4941 27.088 56.4941 27.592C56.4941 28.552 56.2661 29.296 55.8101 29.824C53.4341 32.728 51.2141 34.18 49.1501 34.18ZM66.6855 25.972C66.9495 27.94 67.3335 29.884 67.8375 31.804C67.9335 32.116 67.9815 32.44 67.9815 32.776C67.9815 33.856 67.3215 34.396 66.0015 34.396C65.2575 34.396 64.6815 34.192 64.2735 33.784C63.8895 33.376 63.5295 32.608 63.1935 31.48L63.1575 31.336C62.2455 32.464 61.4175 33.22 60.6735 33.604C59.9535 33.988 59.1135 34.18 58.1535 34.18C56.6895 34.18 55.4775 33.64 54.5175 32.56C53.5815 31.456 53.1135 30.028 53.1135 28.276C53.1135 26.356 53.5215 24.58 54.3375 22.948C55.1535 21.316 56.2695 19.984 57.6855 18.952C59.1015 17.896 60.6855 17.26 62.4375 17.044C62.8935 12.508 63.7575 8.56 65.0295 5.2C66.3255 1.84 68.0415 0.159998 70.1775 0.159998C71.2095 0.159998 72.0615 0.627998 72.7335 1.564C73.4295 2.5 73.7775 3.916 73.7775 5.812C73.7775 8.452 73.1295 11.536 71.8335 15.064C70.5375 18.592 68.8215 22.228 66.6855 25.972ZM69.7815 3.688C69.0855 3.688 68.4255 5.464 67.8015 9.016C67.2015 12.568 66.7935 16.432 66.5775 20.608C69.2415 14.848 70.5735 10.168 70.5735 6.568C70.5735 5.656 70.4895 4.948 70.3215 4.444C70.1775 3.94 69.9975 3.688 69.7815 3.688ZM59.4135 30.544C59.8935 30.544 60.3495 30.364 60.7815 30.004C61.2375 29.644 61.8135 28.948 62.5095 27.916C62.2695 26.164 62.1495 24.352 62.1495 22.48C62.1495 21.736 62.1615 21.16 62.1855 20.752C60.8655 21.136 59.7735 22.012 58.9095 23.38C58.0455 24.748 57.6135 26.26 57.6135 27.916C57.6135 29.668 58.2135 30.544 59.4135 30.544ZM124.864 12.544C124.864 14.584 124.336 16.456 123.28 18.16C122.224 19.864 120.688 21.256 118.672 22.336C116.656 23.416 114.256 24.052 111.472 24.244L109.924 32.92C109.324 36.256 107.692 37.924 105.028 37.924C103.564 37.924 102.208 37.492 100.96 36.628C99.7363 35.764 98.7523 34.444 98.0083 32.668C97.2643 30.892 96.8923 28.708 96.8923 26.116C96.8923 21.244 97.6723 17.116 99.2323 13.732C100.816 10.324 102.928 7.78 105.568 6.1C108.232 4.396 111.16 3.544 114.352 3.544C116.608 3.544 118.516 3.94 120.076 4.732C121.66 5.524 122.848 6.604 123.64 7.972C124.456 9.316 124.864 10.84 124.864 12.544ZM112.12 20.536C117.04 19.912 119.5 17.356 119.5 12.868C119.5 11.284 118.972 10 117.916 9.016C116.884 8.008 115.276 7.504 113.092 7.504C110.62 7.504 108.46 8.284 106.612 9.844C104.788 11.404 103.372 13.576 102.364 16.36C101.38 19.12 100.888 22.276 100.888 25.828C100.888 27.316 101.032 28.636 101.32 29.788C101.632 30.94 102.016 31.84 102.472 32.488C102.952 33.112 103.408 33.424 103.84 33.424C104.44 33.424 104.896 32.596 105.208 30.94L106.396 24.136C105.46 23.992 105.052 23.932 105.172 23.956C104.452 23.836 103.984 23.62 103.768 23.308C103.552 22.972 103.444 22.552 103.444 22.048C103.444 21.52 103.588 21.1 103.876 20.788C104.188 20.476 104.608 20.32 105.136 20.32C105.376 20.32 105.556 20.332 105.676 20.356C106.252 20.452 106.696 20.512 107.008 20.536C107.32 18.664 107.764 16.156 108.34 13.012C108.484 12.196 108.808 11.62 109.312 11.284C109.84 10.924 110.452 10.744 111.148 10.744C111.94 10.744 112.504 10.9 112.84 11.212C113.2 11.5 113.38 11.968 113.38 12.616C113.38 13 113.356 13.312 113.308 13.552L112.12 20.536ZM139.577 25.972C139.889 25.972 140.129 26.116 140.297 26.404C140.489 26.692 140.585 27.088 140.585 27.592C140.585 28.552 140.357 29.296 139.901 29.824C138.869 31.096 137.741 32.14 136.517 32.956C135.317 33.772 133.949 34.18 132.413 34.18C130.301 34.18 128.729 33.22 127.697 31.3C126.689 29.38 126.185 26.896 126.185 23.848C126.185 20.92 126.557 17.584 127.301 13.84C128.069 10.096 129.185 6.88 130.649 4.192C132.137 1.504 133.901 0.159998 135.941 0.159998C137.093 0.159998 137.993 0.699998 138.641 1.78C139.313 2.836 139.649 4.36 139.649 6.352C139.649 9.208 138.857 12.52 137.273 16.288C135.689 20.056 133.541 23.788 130.829 27.484C130.997 28.468 131.273 29.176 131.657 29.608C132.041 30.016 132.545 30.22 133.169 30.22C134.153 30.22 135.017 29.944 135.761 29.392C136.505 28.816 137.453 27.844 138.605 26.476C138.893 26.14 139.217 25.972 139.577 25.972ZM135.149 3.724C134.597 3.724 133.973 4.72 133.277 6.712C132.581 8.704 131.969 11.176 131.441 14.128C130.913 17.08 130.625 19.912 130.577 22.624C132.281 19.816 133.637 17.008 134.645 14.2C135.653 11.368 136.157 8.788 136.157 6.46C136.157 4.636 135.821 3.724 135.149 3.724ZM141.752 34.18C140.264 34.18 139.076 33.64 138.188 32.56C137.3 31.48 136.856 30.064 136.856 28.312C136.856 26.392 137.3 24.58 138.188 22.876C139.076 21.148 140.252 19.768 141.716 18.736C143.204 17.68 144.776 17.152 146.432 17.152C146.96 17.152 147.308 17.26 147.476 17.476C147.668 17.668 147.824 18.028 147.944 18.556C148.448 18.46 148.976 18.412 149.528 18.412C150.704 18.412 151.292 18.832 151.292 19.672C151.292 20.176 151.112 21.376 150.752 23.272C150.2 26.032 149.924 27.952 149.924 29.032C149.924 29.392 150.008 29.68 150.176 29.896C150.368 30.112 150.608 30.22 150.896 30.22C151.352 30.22 151.904 29.932 152.552 29.356C153.2 28.756 154.076 27.796 155.18 26.476C155.468 26.14 155.792 25.972 156.152 25.972C156.464 25.972 156.704 26.116 156.872 26.404C157.064 26.692 157.16 27.088 157.16 27.592C157.16 28.552 156.932 29.296 156.476 29.824C155.492 31.048 154.448 32.08 153.344 32.92C152.24 33.76 151.172 34.18 150.14 34.18C149.348 34.18 148.616 33.916 147.944 33.388C147.296 32.836 146.804 32.092 146.468 31.156C145.22 33.172 143.648 34.18 141.752 34.18ZM143.048 30.544C143.576 30.544 144.08 30.232 144.56 29.608C145.04 28.984 145.388 28.156 145.604 27.124L146.936 20.5C145.928 20.524 144.992 20.908 144.128 21.652C143.288 22.372 142.616 23.332 142.112 24.532C141.608 25.732 141.356 27.004 141.356 28.348C141.356 29.092 141.5 29.644 141.788 30.004C142.1 30.364 142.52 30.544 143.048 30.544ZM156.79 34.18C155.878 34.18 155.23 33.7 154.846 32.74C154.486 31.78 154.306 30.244 154.306 28.132C154.306 25.012 154.75 22.048 155.638 19.24C155.854 18.544 156.202 18.04 156.682 17.728C157.186 17.392 157.882 17.224 158.77 17.224C159.25 17.224 159.586 17.284 159.778 17.404C159.97 17.524 160.066 17.752 160.066 18.088C160.066 18.472 159.886 19.336 159.526 20.68C159.286 21.64 159.094 22.48 158.95 23.2C158.806 23.92 158.686 24.808 158.59 25.864C159.382 23.8 160.27 22.12 161.254 20.824C162.238 19.528 163.198 18.604 164.134 18.052C165.094 17.5 165.97 17.224 166.762 17.224C168.322 17.224 169.102 18.004 169.102 19.564C169.102 20.5 168.838 22.192 168.31 24.64C167.854 26.728 167.626 28.108 167.626 28.78C167.626 29.74 167.974 30.22 168.67 30.22C169.15 30.22 169.714 29.932 170.362 29.356C171.034 28.756 171.922 27.796 173.026 26.476C173.314 26.14 173.638 25.972 173.998 25.972C174.31 25.972 174.55 26.116 174.718 26.404C174.91 26.692 175.006 27.088 175.006 27.592C175.006 28.552 174.778 29.296 174.322 29.824C173.29 31.096 172.174 32.14 170.974 32.956C169.798 33.772 168.454 34.18 166.942 34.18C165.718 34.18 164.794 33.832 164.17 33.136C163.546 32.416 163.234 31.384 163.234 30.04C163.234 29.368 163.402 28.168 163.738 26.44C164.05 24.928 164.206 23.884 164.206 23.308C164.206 22.924 164.074 22.732 163.81 22.732C163.498 22.732 163.054 23.14 162.478 23.956C161.926 24.748 161.35 25.804 160.75 27.124C160.174 28.444 159.706 29.836 159.346 31.3C159.082 32.428 158.77 33.196 158.41 33.604C158.074 33.988 157.534 34.18 156.79 34.18ZM174.649 34.18C173.737 34.18 173.089 33.7 172.705 32.74C172.345 31.78 172.165 30.244 172.165 28.132C172.165 25.012 172.609 22.048 173.497 19.24C173.713 18.544 174.061 18.04 174.541 17.728C175.045 17.392 175.741 17.224 176.629 17.224C177.109 17.224 177.445 17.284 177.637 17.404C177.829 17.524 177.925 17.752 177.925 18.088C177.925 18.472 177.745 19.336 177.385 20.68C177.145 21.64 176.953 22.48 176.809 23.2C176.665 23.92 176.545 24.808 176.449 25.864C177.241 23.8 178.129 22.12 179.113 20.824C180.097 19.528 181.057 18.604 181.993 18.052C182.953 17.5 183.829 17.224 184.621 17.224C186.181 17.224 186.961 18.004 186.961 19.564C186.961 20.5 186.697 22.192 186.169 24.64C185.713 26.728 185.485 28.108 185.485 28.78C185.485 29.74 185.833 30.22 186.529 30.22C187.009 30.22 187.573 29.932 188.221 29.356C188.893 28.756 189.781 27.796 190.885 26.476C191.173 26.14 191.497 25.972 191.857 25.972C192.169 25.972 192.409 26.116 192.577 26.404C192.769 26.692 192.865 27.088 192.865 27.592C192.865 28.552 192.637 29.296 192.181 29.824C191.149 31.096 190.033 32.14 188.833 32.956C187.657 33.772 186.313 34.18 184.801 34.18C183.577 34.18 182.653 33.832 182.029 33.136C181.405 32.416 181.093 31.384 181.093 30.04C181.093 29.368 181.261 28.168 181.597 26.44C181.909 24.928 182.065 23.884 182.065 23.308C182.065 22.924 181.933 22.732 181.669 22.732C181.357 22.732 180.913 23.14 180.337 23.956C179.785 24.748 179.209 25.804 178.609 27.124C178.033 28.444 177.565 29.836 177.205 31.3C176.941 32.428 176.629 33.196 176.269 33.604C175.933 33.988 175.393 34.18 174.649 34.18ZM206.009 25.972C206.321 25.972 206.561 26.116 206.729 26.404C206.921 26.692 207.017 27.088 207.017 27.592C207.017 28.552 206.789 29.296 206.333 29.824C205.445 30.904 204.185 31.9 202.553 32.812C200.945 33.724 199.217 34.18 197.369 34.18C194.849 34.18 192.893 33.496 191.501 32.128C190.109 30.76 189.413 28.888 189.413 26.512C189.413 24.856 189.761 23.32 190.457 21.904C191.153 20.464 192.113 19.324 193.337 18.484C194.585 17.644 195.989 17.224 197.549 17.224C198.941 17.224 200.057 17.644 200.897 18.484C201.737 19.3 202.157 20.416 202.157 21.832C202.157 23.488 201.557 24.916 200.357 26.116C199.181 27.292 197.177 28.228 194.345 28.924C194.945 30.028 196.085 30.58 197.765 30.58C198.845 30.58 200.069 30.208 201.437 29.464C202.829 28.696 204.029 27.7 205.037 26.476C205.325 26.14 205.649 25.972 206.009 25.972ZM196.937 20.752C196.049 20.752 195.293 21.268 194.669 22.3C194.069 23.332 193.769 24.58 193.769 26.044V26.116C195.185 25.78 196.301 25.276 197.117 24.604C197.933 23.932 198.341 23.152 198.341 22.264C198.341 21.808 198.209 21.448 197.945 21.184C197.705 20.896 197.369 20.752 196.937 20.752ZM218.629 22.156C219.157 22.156 219.601 22.348 219.961 22.732C220.345 23.092 220.537 23.548 220.537 24.1C220.537 24.412 220.465 24.748 220.321 25.108C219.937 25.996 219.397 26.74 218.701 27.34C218.005 27.94 217.237 28.24 216.397 28.24C215.725 28.24 215.149 28 214.669 27.52C214.213 27.04 213.985 26.392 213.985 25.576C213.985 25.12 214.009 24.628 214.057 24.1C214.105 23.716 214.129 23.452 214.129 23.308C214.129 23.116 214.081 22.972 213.985 22.876C213.913 22.78 213.817 22.732 213.697 22.732C213.361 22.732 212.905 23.14 212.329 23.956C211.753 24.748 211.177 25.804 210.601 27.124C210.025 28.444 209.557 29.836 209.197 31.3C208.933 32.452 208.633 33.22 208.297 33.604C207.961 33.988 207.409 34.18 206.641 34.18C205.729 34.18 205.081 33.7 204.697 32.74C204.337 31.78 204.157 30.244 204.157 28.132C204.157 25.012 204.601 22.048 205.489 19.24C205.705 18.544 206.053 18.04 206.533 17.728C207.037 17.392 207.733 17.224 208.621 17.224C209.101 17.224 209.437 17.284 209.629 17.404C209.821 17.524 209.917 17.752 209.917 18.088C209.917 18.472 209.737 19.336 209.377 20.68C209.137 21.64 208.945 22.48 208.801 23.2C208.657 23.92 208.537 24.808 208.441 25.864C209.233 23.8 210.121 22.12 211.105 20.824C212.089 19.528 213.049 18.604 213.985 18.052C214.921 17.5 215.773 17.224 216.541 17.224C217.237 17.224 217.765 17.428 218.125 17.836C218.509 18.22 218.701 18.796 218.701 19.564C218.701 20.02 218.569 20.884 218.305 22.156H218.629Z" fill="#512DA8"/>
<path d="M98.8754 25.972C99.1874 25.972 99.4274 26.116 99.5954 26.404C99.7874 26.692 99.8834 27.088 99.8834 27.592C99.8834 28.528 99.6554 29.272 99.1994 29.824C98.0234 31.216 96.8594 32.296 95.7074 33.064C94.5554 33.808 93.2714 34.18 91.8554 34.18C89.7194 34.18 88.0994 33.544 86.9954 32.272C85.9154 31 85.0394 29.14 84.3674 26.692L83.1434 22.228L74.6474 32.74C74.1674 33.34 73.6754 33.736 73.1714 33.928C72.6674 34.096 72.0794 34.18 71.4074 34.18C70.7354 34.18 70.1714 34.06 69.7154 33.82C69.2834 33.556 69.0674 33.196 69.0674 32.74C69.0674 32.14 69.4154 31.456 70.1114 30.688L81.7754 17.404L80.6234 13.192C80.0714 11.224 79.4594 9.844 78.7874 9.052C78.1154 8.26 77.3474 7.864 76.4834 7.864C75.2114 7.864 73.7234 8.788 72.0194 10.636C71.7314 10.948 71.4074 11.104 71.0474 11.104C70.6874 11.104 70.3754 10.972 70.1114 10.708C69.8714 10.42 69.7514 10.06 69.7514 9.628C69.7514 8.908 70.0994 8.128 70.7954 7.288C71.7794 6.136 72.8474 5.212 73.9994 4.516C75.1514 3.82 76.5194 3.472 78.1034 3.472C79.8074 3.472 81.2114 4.012 82.3154 5.092C83.4194 6.148 84.2954 7.864 84.9434 10.24L85.6634 12.76L91.9634 5.092C92.4434 4.516 92.9354 4.108 93.4394 3.868C93.9434 3.628 94.5554 3.508 95.2754 3.508C95.9234 3.508 96.4274 3.628 96.7874 3.868C97.1714 4.108 97.3634 4.444 97.3634 4.876C97.3634 5.452 97.0394 6.112 96.3914 6.856L87.0314 17.656L89.0834 25C89.4434 26.272 89.7674 27.244 90.0554 27.916C90.3434 28.588 90.6914 29.092 91.0994 29.428C91.5314 29.74 92.0954 29.896 92.7914 29.896C93.5354 29.896 94.3034 29.632 95.0954 29.104C95.9114 28.576 96.8474 27.7 97.9034 26.476C98.1914 26.14 98.5154 25.972 98.8754 25.972Z" fill="#7953D2"/>
</svg>
